<?xml version="1.0" encoding="utf-8"?>
<!-- Generator: Adobe Illustrator 16.0.0, SVG Export Plug-In . SVG Version: 6.00 Build 0)  -->
<!DOCTYPE svg PUBLIC "-//W3C//DTD SVG 1.1//EN" "http://www.w3.org/Graphics/SVG/1.1/DTD/svg11.dtd">
<svg version="1.1" id="Layer_1" xmlns="http://www.w3.org/2000/svg" xmlns:xlink="http://www.w3.org/1999/xlink" x="0px" y="0px"
	 width="28px" height="28px" viewBox="0 0 28 28" enable-background="new 0 0 28 28" xml:space="preserve">
<path fill="#FFFFFF" d="M14.038,0.039C6.328,0.039,0.077,6.29,0.077,14c0,7.712,6.251,13.961,13.961,13.961
	C21.75,27.961,28,21.712,28,14C28,6.29,21.75,0.039,14.038,0.039z M17.029,14.006h-1.958c0,3.126,0,6.975,0,6.975h-2.897
	c0,0,0-3.811,0-6.975h-1.379v-2.465h1.379V9.946c0-1.142,0.542-2.927,2.925-2.927l2.148,0.009v2.393c0,0-1.307,0-1.56,0
	s-0.616,0.126-0.616,0.672v1.448h2.212L17.029,14.006z"/>
</svg>
