<?xml version="1.0" encoding="utf-8"?>
<!-- Generator: Adobe Illustrator 16.0.0, SVG Export Plug-In . SVG Version: 6.00 Build 0)  -->
<!DOCTYPE svg PUBLIC "-//W3C//DTD SVG 1.1//EN" "http://www.w3.org/Graphics/SVG/1.1/DTD/svg11.dtd">
<svg version="1.1" id="Layer_1" xmlns="http://www.w3.org/2000/svg" xmlns:xlink="http://www.w3.org/1999/xlink" x="0px" y="0px"
	 width="28px" height="28px" viewBox="0 0 28 28" enable-background="new 0 0 28 28" xml:space="preserve">
<g>
	<path fill="#FFFFFF" d="M14.839,12.972v-0.03c-0.005,0.011-0.013,0.021-0.02,0.03H14.839z"/>
	<path fill="#FFFFFF" d="M14,0C6.268,0,0,6.269,0,14c0,7.733,6.268,14,14,14c7.732,0,14-6.267,14-14C28,6.269,21.732,0,14,0z
		 M10.179,20.691H7.177v-9.027h3.002V20.691z M8.677,10.43h-0.02C7.651,10.43,7,9.736,7,8.87c0-0.886,0.672-1.561,1.697-1.561
		c1.026,0,1.659,0.675,1.678,1.561C10.375,9.736,9.724,10.43,8.677,10.43z M21,20.691h-3.002v-4.83c0-1.213-0.433-2.042-1.521-2.042
		c-0.827,0-1.323,0.561-1.54,1.099c-0.079,0.192-0.099,0.459-0.099,0.731v5.042h-3c0,0,0.039-8.181,0-9.027h3v1.278
		c0.4-0.617,1.113-1.49,2.705-1.49c1.975,0,3.456,1.289,3.456,4.062V20.691z"/>
</g>
</svg>
