<?xml version="1.0" encoding="utf-8"?>
<!-- Generator: Adobe Illustrator 16.0.0, SVG Export Plug-In . SVG Version: 6.00 Build 0)  -->
<!DOCTYPE svg PUBLIC "-//W3C//DTD SVG 1.1//EN" "http://www.w3.org/Graphics/SVG/1.1/DTD/svg11.dtd">
<svg version="1.1" id="Layer_1" xmlns="http://www.w3.org/2000/svg" xmlns:xlink="http://www.w3.org/1999/xlink" x="0px" y="0px"
	 width="28px" height="28px" viewBox="0 0 28 28" enable-background="new 0 0 28 28" xml:space="preserve">
<path fill="#FFFFFF" d="M14,0C6.269,0,0,6.269,0,14c0,7.733,6.269,14,14,14s14-6.267,14-14C28,6.269,21.731,0,14,0z M19.567,11.146
	c0.006,0.123,0.008,0.246,0.008,0.371c0,3.796-2.889,8.173-8.172,8.173c-1.623,0-3.132-0.476-4.403-1.291
	c0.226,0.026,0.454,0.04,0.686,0.04c1.347,0,2.584-0.458,3.566-1.229c-1.256-0.024-2.317-0.854-2.682-1.995
	c0.175,0.033,0.354,0.052,0.54,0.052c0.262,0,0.516-0.036,0.756-0.101C8.554,14.9,7.563,13.74,7.563,12.349c0-0.012,0-0.024,0-0.036
	c0.388,0.215,0.83,0.343,1.301,0.358c-0.771-0.514-1.278-1.395-1.278-2.391c0-0.526,0.142-1.021,0.389-1.444
	c1.416,1.738,3.533,2.882,5.92,3.001c-0.049-0.21-0.075-0.429-0.075-0.654c0-1.586,1.286-2.871,2.873-2.871
	c0.825,0,1.572,0.349,2.096,0.906c0.654-0.128,1.27-0.368,1.824-0.697c-0.215,0.671-0.67,1.234-1.263,1.589
	c0.581-0.068,1.135-0.224,1.649-0.451C20.615,10.235,20.129,10.741,19.567,11.146z"/>
</svg>
