<?xml version="1.0" encoding="utf-8"?>
<!-- Generator: Adobe Illustrator 16.0.0, SVG Export Plug-In . SVG Version: 6.00 Build 0)  -->
<!DOCTYPE svg PUBLIC "-//W3C//DTD SVG 1.1//EN" "http://www.w3.org/Graphics/SVG/1.1/DTD/svg11.dtd">
<svg version="1.1" id="Layer_1" xmlns="http://www.w3.org/2000/svg" xmlns:xlink="http://www.w3.org/1999/xlink" x="0px" y="0px"
	 width="210px" height="150px" viewBox="0 0 210 150" enable-background="new 0 0 210 150" xml:space="preserve">
<g>
	<g>
		<polygon fill="#FFFFFF" points="62.127,141.74 49.565,110.383 44.791,110.383 60.043,148.189 64.163,148.189 79.969,110.383 
			75.183,110.383 		"/>
		<path fill="#FFFFFF" d="M98.483,109.626c-5.848,0-10.375,2.086-13.448,6.19c-2.669,3.476-4.023,8.042-4.023,13.572
			c0,5.528,1.353,10.116,4.022,13.639c3.082,4.017,7.606,6.054,13.448,6.054c4.09,0,7.662-1.087,10.62-3.23
			c2.288-1.666,3.99-3.832,5.058-6.437l0.378-0.923l-3.86-1.917l-0.439,1.061c-2.072,5.011-5.918,7.448-11.756,7.448
			c-4.203,0-7.385-1.523-9.733-4.664c-1.992-2.611-3.042-5.914-3.129-9.822h30.185v-2.377c0-5.41-1.389-9.804-4.12-13.052
			C108.65,111.492,104.209,109.626,98.483,109.626z M108.152,117.892c1.791,2.264,2.78,5.143,2.949,8.569H85.795
			c0.414-3.499,1.571-6.416,3.441-8.677c2.343-2.752,5.515-4.089,9.695-4.089C102.941,113.694,105.957,115.065,108.152,117.892z"/>
		<polygon fill="#FFFFFF" points="148.305,106.203 145.523,101.688 126.484,101.688 129.271,106.207 		"/>
		<path fill="#FFFFFF" d="M137.47,109.626c-5.848,0-10.376,2.086-13.448,6.191c-2.67,3.475-4.023,8.042-4.023,13.571
			c0,5.528,1.352,10.116,4.022,13.639c3.082,4.017,7.606,6.054,13.449,6.054c4.09,0,7.661-1.087,10.619-3.23
			c2.289-1.667,3.99-3.833,5.058-6.438l0.377-0.922l-3.859-1.917l-0.438,1.061c-2.073,5.011-5.919,7.448-11.756,7.448
			c-4.204,0-7.386-1.523-9.733-4.664c-1.992-2.611-3.043-5.914-3.13-9.822h30.185v-2.377c0-5.412-1.389-9.805-4.12-13.052
			C147.636,111.492,143.194,109.626,137.47,109.626z M147.139,117.892c1.79,2.264,2.78,5.143,2.948,8.569h-25.306
			c0.413-3.499,1.571-6.416,3.44-8.677c2.344-2.752,5.515-4.089,9.695-4.089C141.927,113.694,144.941,115.065,147.139,117.892z"/>
		<path fill="#FFFFFF" d="M163.811,106.37c0-2.862,0.306-4.088,0.542-4.573c0.547-1.01,1.75-1.501,3.679-1.501h7.557v-4.01
			l-7.93,0.08c-3.529,0-5.898,1.014-7.03,2.992c-0.855,1.42-1.271,3.737-1.271,7.082v41.75h4.454V114.52h7.604v-4.137h-7.604V106.37
			z"/>
		<path fill="#FFFFFF" d="M209.506,128.221c0-5.41-1.39-9.804-4.122-13.052c-3.034-3.678-7.476-5.543-13.201-5.543
			c-5.847,0-10.374,2.086-13.446,6.19c-2.67,3.476-4.024,8.042-4.024,13.572c0,5.528,1.353,10.116,4.023,13.639
			c3.081,4.017,7.606,6.054,13.447,6.054c4.09,0,7.663-1.087,10.62-3.23c2.289-1.666,3.99-3.832,5.059-6.437l0.377-0.923
			l-3.859-1.917l-0.439,1.061c-2.073,5.011-5.918,7.448-11.757,7.448c-4.202,0-7.384-1.523-9.732-4.664
			c-1.991-2.61-3.043-5.913-3.128-9.822h30.184V128.221z M201.853,117.892c1.791,2.265,2.78,5.144,2.949,8.569h-25.307
			c0.413-3.499,1.571-6.417,3.44-8.677c2.343-2.752,5.515-4.089,9.695-4.089C196.642,113.694,199.657,115.065,201.853,117.892z"/>
	</g>
	<g>
		<path fill="#FFFFFF" d="M66.931,55.707L0,21.77V0l91.155,46.529v18.355L0,111.413V89.645L66.931,55.707z"/>
	</g>
</g>
</svg>
